<?xml version="1.0" standalone="no"?>
<!DOCTYPE svg PUBLIC "-//W3C//DTD SVG 1.1//EN" "http://www.w3.org/Graphics/SVG/1.1/DTD/svg11.dtd" >
<!--
2013-9-30: Created.
-->
<svg>
<metadata>
Created by iconfont
</metadata>
<defs>

<font id="iconfont" horiz-adv-x="1024" >
  <font-face
    font-family="iconfont"
    font-weight="500"
    font-stretch="normal"
    units-per-em="1024"
    ascent="896"
    descent="-128"
  />
    <missing-glyph />
    
    <glyph glyph-name="x" unicode="x" horiz-adv-x="1001"
d="M281 543q-27 -1 -53 -1h-83q-18 0 -36.5 -6t-32.5 -18.5t-23 -32t-9 -45.5v-76h912v41q0 16 -0.5 30t-0.5 18q0 13 -5 29t-17 29.5t-31.5 22.5t-49.5 9h-133v-97h-438v97zM955 310v-52q0 -23 0.5 -52t0.5 -58t-10.5 -47.5t-26 -30t-33 -16t-31.5 -4.5q-14 -1 -29.5 -0.5
t-29.5 0.5h-32l-45 128h-439l-44 -128h-29h-34q-20 0 -45 1q-25 0 -41 9.5t-25.5 23t-13.5 29.5t-4 30v167h911zM163 247q-12 0 -21 -8.5t-9 -21.5t9 -21.5t21 -8.5q13 0 22 8.5t9 21.5t-9 21.5t-22 8.5zM316 123q-8 -26 -14 -48q-5 -19 -10.5 -37t-7.5 -25t-3 -15t1 -14.5
t9.5 -10.5t21.5 -4h37h67h81h80h64h36q23 0 34 12t2 38q-5 13 -9.5 30.5t-9.5 34.5q-5 19 -11 39h-368zM336 498v228q0 11 2.5 23t10 21.5t20.5 15.5t34 6h188q31 0 51.5 -14.5t20.5 -52.5v-227h-327z" />
    

    
    <glyph glyph-name="jiahao" unicode="&#58880;" d="M745.9988 346.3016H545.1387466184041V547.1544292969367c0 16.5568-13.4234 29.9797-29.9809 29.9797-16.5585 0-29.9809-13.4229-29.9809-29.9797v-200.8528217868285H284.31489141416915c-16.5575 0-29.9809-13.4229-29.9809-29.9797s13.4234-29.9797 29.9809-29.9797h200.86105151018802v-200.85182246436915c0-16.5568 13.4234-29.9797 29.9809-29.9797 16.5575 0 29.9809 13.4229 29.9809 29.9797V286.34225994775545h200.8600521467825c16.5575 0 29.9809 13.4229 29.9809 29.9797S762.5563 346.3016 745.9988 346.3016z"  horiz-adv-x="1000" />

    
    <glyph glyph-name="360" unicode="&#58902;" d="M337.3687 230.433598c1.689479 0 3.356444 0.082888 5.01113 0.206708l109.249193 0 0-125.172861c0-36.935214 30.209022-67.305919 67.199495-67.305919 37.19411 0 67.403133 30.370705 67.403133 67.305919 0 1.683339-0.078795 3.350304-0.201591 5.007037L586.03006 230.640306l130.430608 0c1.64957-0.122797 3.310396-0.206708 4.993734-0.206708 36.992519 0 67.201541 30.370705 67.201541 67.306942 0 37.142945-30.209022 67.305919-67.201541 67.305919-1.689479 0-3.356444-0.082888-5.01113-0.206708L586.03006 364.839751 586.03006 483.776583c0.122797 1.656733 0.201591 3.323699 0.201591 5.006014 0 36.936237-30.209022 67.306942-67.403133 67.306942-36.991496 0-67.199495-30.370705-67.199495-67.306942l0-123.941823L337.576431 364.840774l0-0.00614c-0.067538 0-0.135076 0.00614-0.207731 0.00614-36.986379 0-67.195402-30.162974-67.195402-67.306942C270.173299 260.596572 300.381297 230.433598 337.3687 230.433598L337.3687 230.433598zM838.462303-94.428258c26.779923 21.941732 51.572586 46.959521 73.80596 74.959226 70.254064 87.587847 112.369254 198.554148 112.369254 319.04436 0 281.738709-230.159984 511.569188-512.318248 511.569188-282.154171 0-512.319272-229.824339-512.319272-511.569188 0-111.508653 36.080753-214.869742 97.140411-299.083749 15.33629-24.12342 37.96466-50.371224 69.482491-77.882811 91.233887-83.517135 212.681914-134.608767 345.69637-134.608767 121.470539 0 233.280044 42.623773 321.265958 113.622804 1.068332 0.856507 2.136663 1.711991 3.198855 2.578732C837.343829-95.340023 837.908694-94.886699 838.462303-94.428258L838.462303-94.428258zM134.278235 589.419645c81.132832 47.171346 173.73181 72.240301 231.452419 83.705424 107.269096 21.336958 236.121765-14.777565 283.389302-37.144992 80.350003-37.758975 105.008612-75.925227 146.521075-115.121947l23.63121-22.366404c55.437613-52.372811 111.99984-45.639456 128.58968-5.01727 26.623357-59.286268 41.461297-124.914988 41.461297-193.900152 0-111.526049-38.753629-214.298737-103.470583-295.621904-78.639035-43.535539-166.265768-67.087954-221.843574-78.095659-107.067504-21.343097-235.921197 14.776542-283.389302 37.142945-80.147388 37.759999-105.009635 75.92625-146.319483 114.915239l-23.63121 22.567995c-56.002478 52.804646-115.536386 46.478568-134.077671 5.615904-26.505677 59.174728-41.277102 124.657114-41.277102 193.47548C35.315316 408.476597 72.279183 509.029734 134.278235 589.419645L134.278235 589.419645zM134.278235 589.419645"  horiz-adv-x="1025" />

    
    <glyph glyph-name="wx" unicode="&#58909;" d="M340.958974 468.833243c-17.086144 0-34.3309-11.292184-34.3309-28.438703 0-17.10661 17.244756-28.53694 34.3309-28.53694 17.08819 0 28.459169 11.43033 28.459169 28.53694C369.417119 457.541059 358.047164 468.833243 340.958974 468.833243zM574.658573 303.461845c-11.351536 0-22.801309-11.43033-22.801309-22.803355 0-11.529591 11.449773-22.801309 22.801309-22.801309 17.244756 0 28.537963 11.272741 28.537963 22.801309C603.196537 292.031515 591.90333 303.461845 574.658573 303.461845zM890.641201 570.113951c0 64.485687-52.265364 116.752074-116.752074 116.752074L240.507144 686.866025c-64.485687 0-116.752074-52.266387-116.752074-116.752074l0-533.381983c0-64.48671 52.266387-116.752074 116.752074-116.752074l533.383006 0c64.48671 0 116.752074 52.265364 116.752074 116.752074L890.642225 570.113951zM415.022807 177.902174c-28.459169 0-51.340295 5.814426-79.857792 11.449773l-79.700203-39.969317 22.801309 68.584028c-57.07388 39.889499-91.228771 91.289146-91.228771 153.921625 0 108.473527 102.660124 193.888895 227.984435 193.888895 112.101147 0 210.30682-68.248384 230.033094-160.108534-7.251148 0.807389-14.562671 1.339508-21.954011 1.339508-108.295472 0-193.830567-80.82277-193.830567-180.429349 0-16.573467 2.581802-32.537044 7.036253-47.772027C429.271322 178.256238 422.17674 177.902174 415.022807 177.902174zM751.325225 98.043359l17.145495-56.976666-62.535265 34.253128c-22.801309-5.715165-45.702901-11.449773-68.405973-11.449773-108.47455 0-193.910385 74.142627-193.910385 165.450193 0 91.151 85.435835 165.451216 193.910385 165.451216 102.441137 0 193.652512-74.300216 193.652512-165.451216C831.181995 177.902174 797.086455 132.374258 751.325225 98.043359zM700.062701 303.461845c-11.273764 0-22.644743-11.43033-22.644743-22.803355 0-11.529591 11.370978-22.801309 22.644743-22.801309 17.086144 0 28.538987 11.272741 28.538987 22.801309C728.601688 292.031515 717.148845 303.461845 700.062701 303.461845zM500.515946 411.857601c17.166985 0 28.538987 11.43033 28.538987 28.53694 0 17.146519-11.370978 28.438703-28.538987 28.438703-17.08512 0-34.232662-11.292184-34.232662-28.438703C466.283284 423.287931 483.430826 411.857601 500.515946 411.857601z"  horiz-adv-x="1024" />

    
    <glyph glyph-name="bubble" unicode="&#58895;" d="M25.609018-160.8c-11.52 0-21.6064 7.68-24.6784 18.7904s1.6384 22.8864 11.52 28.7744c86.5792 51.9168 122.4704 127.4368 135.2192 162.7648-94.1056 72.0384-147.6608 171.7248-147.6608 276.0704 0 52.6848 13.2096 103.7312 39.3216 151.7568 24.8832 45.7728 60.416 86.784 105.5232 121.9072 91.4944 71.168 212.7872 110.3872 341.5552 110.3872s250.0608-39.2192 341.5552-110.3872c45.1072-35.072 80.64-76.0832 105.5232-121.9072 26.112-47.9744 39.3216-99.0208 39.3216-151.7568s-13.2096-103.7312-39.3216-151.7568c-24.8832-45.7728-60.416-86.784-105.5232-121.9072-91.4944-71.168-212.7872-110.3872-341.5552-110.3872-52.8896 0-104.8064 6.6048-154.4192 19.712-21.9648-14.6432-63.0272-40.6016-112.0768-65.024-76.1856-37.888-141.5168-57.088-194.2528-57.088zM486.409018 658.4c-239.9744 0-435.2-149.2992-435.2-332.8 0-92.928 51.456-182.3744 141.1072-245.3504 8.8064-6.1952 12.8-17.2032 10.0352-27.5968-5.9904-22.3232-26.368-83.6096-80.896-142.7456 66.6624 23.3472 138.4448 63.8464 191.4368 100.3008 6.2976 4.352 14.1824 5.632 21.5552 3.5328 48.5376-13.8752 99.6864-20.9408 151.9616-20.9408 239.9744 0 435.2 149.2992 435.2 332.8s-195.2256 332.8-435.2 332.8z"  horiz-adv-x="1025" />

    
    <glyph glyph-name="weixin" unicode="&#59046;" d="M690.332672 384.065536c-12.587008 0-25.35936-12.722176-25.35936-25.356288 0-12.812288 12.772352-25.356288 25.35936-25.356288 19.262464 0 31.762432 12.544 31.762432 25.356288C722.095104 371.34336 709.595136 384.065536 690.332672 384.065536zM607.857664 504.712192c19.175424 0 31.762432 12.725248 31.762432 31.7184 0 19.08736-12.587008 31.675392-31.762432 31.675392-18.997248 0-38.037504-12.544-38.037504-31.675392C569.82016 517.43744 588.904448 504.712192 607.857664 504.712192zM975.842304 896l-716.8 0c-84.481024 0-153.6-69.118976-153.6-153.6l0-716.8c0-84.481024 69.118976-153.6 153.6-153.6l716.8 0c84.477952 0 153.6 69.118976 153.6 153.6L1129.442304 742.4C1129.442304 826.881024 1060.320256 896 975.842304 896zM512.745472 244.378624c-31.675392 0-57.121792 6.453248-88.840192 12.681216l-88.702976-44.443648 25.35936 76.297216c-63.527936 44.440576-101.518336 101.650432-101.518336 171.3152 0 120.737792 114.23744 215.755776 253.703168 215.755776 124.768256 0 234.034176-75.937792 255.987712-178.168832-8.153088 0.893952-16.262144 1.521664-24.506368 1.521664-120.465408 0-215.621632-89.959424-215.665664-200.794112 0-18.499584 2.909184-36.243456 7.837696-53.225472C528.605184 244.737024 520.717312 244.378624 512.745472 244.378624zM886.914048 155.450368l19.084288-63.434752-69.571584 38.168576c-25.35936-6.35904-50.849792-12.678144-76.11904-12.678144-120.687616 0-215.755776 82.387968-215.755776 184.08448 0 101.38112 95.025152 184.08448 215.755776 184.08448 114.015232 0 215.534592-82.656256 215.534592-184.08448C975.842304 244.378624 937.851904 193.712128 886.914048 155.450368zM829.886464 384.065536c-12.547072 0-25.222144-12.722176-25.222144-25.356288 0-12.812288 12.719104-25.356288 25.222144-25.356288 19.084288 0 31.762432 12.544 31.762432 25.356288C861.648896 371.34336 848.970752 384.065536 829.886464 384.065536zM430.314496 568.105984c-19.043328 0-38.218752-12.587008-38.218752-31.675392 0-18.994176 19.175424-31.7184 38.218752-31.7184 19.037184 0 31.675392 12.725248 31.675392 31.7184C461.988864 555.563008 449.35168 568.105984 430.314496 568.105984z"  horiz-adv-x="1229" />

    
    <glyph glyph-name="fangdajing" unicode="&#58990;" d="M586.153884 742.729198c-39.917128 16.186657-82.086553 24.394596-125.33659 24.394596s-85.418438-8.206916-125.335566-24.394596c-41.34464-16.765849-78.426187-41.385573-110.215194-73.173556-31.789007-31.789007-56.407708-68.870554-73.17458-110.215194-16.186657-39.917128-24.394596-82.08553-24.394596-125.335566s8.207939-85.419462 24.394596-125.33659c16.765849-41.34464 41.385573-78.426187 73.173556-110.215194 31.789007-31.789007 68.870554-56.407708 110.215194-73.173556 39.917128-16.187681 82.086553-24.394596 125.33659-24.394596s85.418438 8.207939 125.335566 24.394596c30.908964 12.534478 59.432601 29.459962 85.146239 50.486858L842.911642 4.153856l47.756677 47.756677L719.055776 223.523075c21.025872 25.713638 37.95238 54.237275 50.485835 85.145216 16.187681 39.917128 24.394596 82.08553 24.394596 125.335566s-8.207939 85.419462-24.394596 125.33659c-16.765849 41.34464-41.384549 78.426187-73.173556 110.215194S627.498524 725.964372 586.153884 742.729198zM726.397998 434.004881c0.001023-70.938656-27.625174-137.632637-77.786621-187.794084-50.16247-50.16247-116.855428-77.786621-187.795107-77.786621-70.938656-0.001023-137.632637 27.625174-187.794084 77.786621-50.161447 50.161447-77.786621 116.855428-77.786621 187.795107 0 70.939679 27.625174 137.632637 77.787644 187.794084 50.161447 50.161447 116.854405 77.786621 187.794084 77.786621 70.939679 0 137.632637-27.625174 187.795107-77.786621C698.773847 571.637518 726.399021 504.943536 726.397998 434.004881z"  horiz-adv-x="1024" />

    
    <glyph glyph-name="faxian" unicode="&#58930;" d="M525.813099 845.298248c-245.538229 0-444.582541-199.043289-444.582541-444.581518 0-245.540276 199.043289-444.583564 444.582541-444.583564s444.581518 199.043289 444.581518 444.583564C970.394616 646.255982 771.347235 845.298248 525.813099 845.298248L525.813099 845.298248zM525.813099-5.202233c-223.827765 0-405.919986 182.091198-405.919986 405.918963 0 223.827765 182.092221 405.919986 405.919986 405.919986 223.826741 0 405.919986-182.092221 405.919986-405.919986C931.733085 176.889989 749.63984-5.202233 525.813099-5.202233L525.813099-5.202233zM752.538867 653.597181 444.915627 489.578594c-3.388167-1.807159-6.158257-4.576225-7.963369-7.963369L272.932648 173.985846c-4.004197-7.506974-2.63092-16.739243 3.387144-22.762423 3.714602-3.713578 8.665357-5.656837 13.674441-5.656837 3.096525 0 6.216585 0.73985 9.086959 2.272763l307.626309 164.022681c3.387144 1.805112 6.157233 4.575202 7.963369 7.962346l164.020634 307.625286c4.001127 7.506974 2.62785 16.742313-3.390213 22.7614C769.287319 656.218892 760.050957 657.601378 752.538867 653.597181L752.538867 653.597181zM583.328024 343.197712 336.912821 211.822592l131.38126 246.414179L714.707236 589.611891 583.328024 343.197712 583.328024 343.197712zM487.151567 400.71673c0-10.120498 4.166903-20.180622 11.322883-27.337625 7.157004-7.157004 17.217127-11.32186 27.338648-11.32186 10.119475 0 20.181645 4.164856 27.337625 11.32186 7.158027 7.157004 11.32186 17.21815 11.32186 27.337625 0 10.120498-4.163833 20.180622-11.32186 27.337625-7.15598 7.15598-17.21815 11.322883-27.337625 11.322883-10.121522 0-20.181645-4.166903-27.338648-11.322883C491.317447 420.897352 487.151567 410.837228 487.151567 400.71673L487.151567 400.71673z"  horiz-adv-x="1024" />

    
    <glyph glyph-name="renren" unicode="&#58964;" d="M657.013792 352.479712c3.377174-1.842095 7.163702-2.763142 10.745553-2.763142 7.982411 0 15.657805 4.195882 19.751349 11.768939 5.935639 10.95023 1.944433 24.561263-9.005797 30.496902-28.347791 15.453128-58.844693 26.915051-90.364981 33.976414 49.224865 35.511493 81.359184 93.435139 81.359184 158.624825 0 107.762542-87.704177 195.46672-195.46672 195.46672-107.762542 0-195.46672-87.704177-195.46672-195.46672 0-12.485309 10.029182-22.514491 22.514491-22.514491s22.514491 10.029182 22.514491 22.514491c0 82.996602 67.441135 150.437737 150.437737 150.437737 82.996602 0 150.437737-67.441135 150.437737-150.437737 0-81.870877-65.803718-148.697981-147.265241-150.437737-1.125725 0.204677-2.251449 0.307016-3.479512 0.307016-47.075755 0-92.821107-9.210474-135.803318-27.426744-41.54947-17.602239-78.903058-42.777533-110.935039-74.809514-32.031981-32.031981-57.207276-69.385569-74.809514-110.935039C134.063562 178.29942 124.853088 132.554068 124.853088 85.478313c0-12.485309 10.029182-22.514491 22.514491-22.514491s22.514491 10.029182 22.514491 22.514491c0 166.504897 134.677593 302.205876 300.773136 303.945633 1.125725-0.204677 2.251449-0.307016 3.479512-0.307016 9.722167 0 19.341995 0.71637 28.757146 2.149111 2.763142-1.125725 5.730961-1.842095 8.801119-1.842095C562.452928 389.423946 612.803518 376.631621 657.013792 352.479712zM755.258845 291.178893c0 12.485309-10.029182 22.514491-22.514491 22.514491L614.031581 313.693384c-12.485309 0-22.514491-10.029182-22.514491-22.514491l0 0c0-12.485309 10.029182-22.514491 22.514491-22.514491l118.712772 0C745.229662 268.664401 755.258845 278.693584 755.258845 291.178893L755.258845 291.178893zM819.732161 193.957226c0 12.485309-10.029182 22.514491-22.514491 22.514491L613.008195 216.471717c-12.485309 0-22.514491-10.029182-22.514491-22.514491l0 0c0-12.485309 10.029182-22.514491 22.514491-22.514491l184.209474 0C809.702978 171.442734 819.732161 181.471917 819.732161 193.957226L819.732161 193.957226zM895.462722 97.758945c0 12.485309-10.029182 22.514491-22.514491 22.514491L611.984809 120.273436c-12.485309 0-22.514491-10.029182-22.514491-22.514491l0 0c0-12.485309 10.029182-22.514491 22.514491-22.514491l260.963422 0C885.43354 75.244453 895.462722 85.273636 895.462722 97.758945L895.462722 97.758945z"  horiz-adv-x="1024" />

    
    <glyph glyph-name="kefu" unicode="&#58899;" d="M510.3616 765.312C351.1552 765.312 222.1312 638.976 222.1312 483.0464 222.1312 327.168 351.1552 200.8064 510.3616 200.8064 669.568 200.8064 798.6176 327.168 798.6176 483.0464 798.6176 638.976 669.568 765.312 510.3616 765.312L510.3616 765.312 510.3616 765.312ZM177.536 374.7072 177.536 635.2896C173.9008 635.2896 170.2656 635.136 166.7072 634.88 225.7664 763.1104 357.3248 852.4544 510.4128 852.4544 663.5008 852.4544 795.0592 763.1104 854.1184 634.88 850.56 635.136 846.9504 635.2896 843.2896 635.2896L843.2896 374.7072C916.7872 374.7072 976.4352 433.0496 976.4352 505.0112 976.4352 553.856 948.9408 596.4544 908.2624 618.752 851.0208 780.032 694.7328 895.8464 510.4128 895.8464 326.0928 895.8464 169.8304 780.032 112.5888 618.752 71.8848 596.4544 44.3904 553.8816 44.3904 505.0112 44.3904 433.0496 103.9872 374.7072 177.536 374.7072L177.536 374.7072 177.536 374.7072ZM798.0032 225.3312C722.688 156.4928 621.568 114.3552 510.3616 114.3552 399.3856 114.3552 298.4448 156.3392 223.1552 224.9472 88.448 157.056 0 36.224 0-127.8976L1024.2304-127.8976C1024.2304 36.5312 934.144 157.5168 798.0032 225.3312L798.0032 225.3312 798.0032 225.3312Z"  horiz-adv-x="1025" />

    
    <glyph glyph-name="wo" unicode="&#58896;" d="M851.683343 20.656682 172.080261 20.656682c-15.772975 0-25.312693 12.340641-27.503697 23.807337L144.293095 45.946861l0 81.195055c0 9.206104 4.105701 16.503651 11.873991 21.102609 26.765858 15.83847 162.82299 96.566875 213.036987 130.513616 25.831534 17.464581 34.79408 39.560869 37.358608 57.079688-43.906035 42.855049-69.904376 110.01888-69.904376 181.559601 0 59.97476 17.850386 116.529466 50.261072 159.246363 16.082028 21.197781 34.911766 37.89587 55.965254 49.633755 22.192483 12.371342 45.82892 18.64451 70.252317 18.64451 24.41521 0 48.049601-6.273168 70.24413-18.64451 21.051442-11.736862 39.880156-28.435973 55.964231-49.633755 32.410685-42.71792 50.259025-99.272626 50.259025-159.246363 0-71.370844-25.908286-138.448713-69.656724-181.313996 2.489823-17.608874 11.32445-39.837175 36.972803-57.372367 49.634778-33.932415 184.186554-114.667983 210.656662-130.50543 7.695632-4.609192 11.762446-11.890365 11.762446-21.062698l0-81.178681-0.277329-1.467491C876.892678 33.014721 867.401057 20.656682 851.683343 20.656682L851.683343 20.656682 851.683343 20.656682zM176.181869 52.542386 847.450746 52.542386l0 70.543973c-33.664295 20.167263-160.176593 96.243495-208.528083 129.298894-42.091626 28.777774-50.344987 68.157509-51.518775 89.069774l-0.428786 7.649581 5.703159 5.11473c40.724424 36.524574 65.036275 97.523712 65.036275 163.176047 0 53.056878-15.546814 102.766361-43.775046 139.973513-27.232508 35.89521-63.034592 55.663364-100.802542 55.663364-37.778184 0-73.579245-19.768154-100.814823-55.663364-28.229256-37.207151-43.776069-86.916635-43.776069-139.973513 0-65.820165 24.408047-126.906289 65.290067-163.405279l5.754327-5.137244-0.456416-7.700749c-1.236213-20.857004-9.645124-60.13031-52.06934-88.811889-48.916383-33.070749-176.872634-109.157215-210.882824-129.305034l0-70.491782L176.181869 52.54341 176.181869 52.542386z"  horiz-adv-x="1024" />

    
    <glyph glyph-name="iconfontzhizuobiaozhunbduan36" unicode="&#59113;" d="M381.8288 877.098511c42.635029 11.310603 86.403882 17.002232 130.205481 17.002232 68.479651 0 135.072325-13.469779 197.999516-40.101323l-8.362458-369.71439L381.8288 877.098511 381.8288 877.098511zM71.201134 640.609379c22.278399 38.284955 49.218982 73.313749 80.134085 104.090707 48.393173 48.396243 104.980983 85.958744 168.285774 111.666242l255.614725-267.305999L71.201134 640.609379 71.201134 640.609379zM18.900977 253.724934c-11.276834 42.463114-17.000186 86.234013-17.000186 130.276089 0 68.548212 13.502525 135.140886 40.099277 197.933001l369.749182-8.293897L18.900977 253.724934 18.900977 253.724934zM255.39011-56.798355c-38.010709 22.1423-72.968895 49.079812-104.021122 80.134085-48.428989 48.325635-85.993536 104.911398-111.664196 168.283728l267.302929 255.513418L255.39011-56.798355 255.39011-56.798355zM512.034281-126.100744c-68.481697 0-135.072325 13.470803-197.999516 40.031738l8.362458 369.71439 319.843562-392.81348C599.535147-120.411161 555.80211-126.100744 512.034281-126.100744L512.034281-126.100744zM448.830797 178.903855l504.036631-51.54905c-22.107507-37.940101-48.976458-72.900334-80.167854-104.019075-48.327682-48.464805-104.980983-86.029352-168.283728-111.734804L448.830797 178.903855 448.830797 178.903855zM612.320335 194.292334l392.81348 319.915193c11.276834-42.499953 16.966417-86.302575 16.966417-130.206504 0-68.753897-13.502525-135.282103-40.066531-198.002586L612.320335 194.292334 612.320335 194.292334zM768.60989 824.764586c37.975916-22.038946 73.004711-48.942689 104.089683-80.0645 48.464805-48.326659 86.027305-104.980983 111.664196-168.284751l-267.302929-255.580956L768.60989 824.764586 768.60989 824.764586z"  horiz-adv-x="1024" />

    
    <glyph glyph-name="renyuanzengjia" unicode="&#58965;" d="M768 160H639.424a32 32 0 0 1 0-64H768v-128.576a32 32 0 0 1 64 0V96h128.576a32 32 0 0 1 0 64H832V288.576a32 32 0 0 1-64 0V160z m-164.8 51.2a703.552 703.552 0 0 1-4.48 0.448 30.912 30.912 0 0 0-26.88 31.936l1.28 62.72a31.744 31.744 0 0 0 14.464 26.176c71.168 44.928 104.32 130.944 104.32 270.72 0 142.848-95.68 172.8-175.936 172.8h-7.936c-80.256 0-175.872-29.952-175.872-172.8 0-137.344 34.56-225.92 105.536-270.72 8.96-5.696 14.464-15.872 14.464-26.88v-62.72a30.848 30.848 0 0 0-26.944-31.232c-145.728-15.232-242.368-71.232-242.368-101.568 0-97.6 179.008-118.08 329.152-118.08 38.976 0 79.872 1.408 119.04 5.12v-55.936C595.008-62.272 555.328-64 512-64c-254.784 0-384 59.904-384 178.112 0 84.416 133.12 139.648 265.856 158.336v17.536c-79.68 58.24-118.464 159.936-118.464 309.952C275.392 745.216 362.368 832 508.096 832h7.808c145.792 0 232.768-86.784 232.768-232.064 0-56.448 0-223.808-117.568-310.144l-0.384-17.408h0.32v-61.184h-27.84z"  horiz-adv-x="1024" />

    
    <glyph glyph-name="tuandui" unicode="&#59020;" d="M544 361.6c57.6 41.6 96 108.8 96 182.4 0 124.8-99.2 224-224 224s-224-99.2-224-224c0-76.8 38.4-144 96-182.4C156.8 310.4 64 182.39999999999998 64 32v-32h64v32c0 160 128 288 288 288s288-128 288-288c0-9.6 0-22.4-3.2-32h64v32C768 182.39999999999998 675.2 310.4 544 361.6zM416 384c-89.6 0-160 70.4-160 160s70.4 160 160 160 160-70.4 160-160-70.4-160-160-160zM780.8 393.6C812.8 422.4 832 464 832 512c0 80-57.6 147.2-134.4 156.8l-9.6-64c44.8-6.4 80-48 80-96 0-54.4-41.6-96-96-96v-64c124.8 0 224-99.2 224-224 0-9.6 0-22.4-3.2-32h64c0 9.6 3.2 22.4 3.2 32 0 124.8-73.6 227.2-179.2 268.8z"  horiz-adv-x="1024" />

    
    <glyph glyph-name="zhifubao" unicode="&#58883;" d="M201.525 325.241s-82.945-27.446-88.101-97.351c0 0-8.643-94.469 123.584-121.309 0 0 171.652-26.385 294.781 151.636 0-0.607-190.152 115.092-330.264 67.023zM627.319 213.637s-274.765-327.989-515.563-102.961c0 0-106.145 121.309 34.27 254.142 0 0 106.145 108.117 441.262-18.955 69.775 135.091 118.367 292.541 136.586 459.122l-477.767-320.071v39.425h207.742v71.572h-252.323v41.245h252.323v104.629c-0.042 0.422-0.066 0.912-0.066 1.408 0 7.971 6.15 14.505 13.964 15.117l103.772 0.003v-121.309h253.233v-41.245h-253.233v-72.179h206.832s-44.126-152.849-82.187-216.385c0 0 232.913-94.469 327.686-109.785v561.054c0 0.045 0 0.098 0 0.152 0 75.821-61.422 137.296-137.223 137.382l-749.243 0c-75.874 0-137.382-61.508-137.382-137.382v-749.235c0-75.874 61.508-137.382 137.382-137.382h749.235c75.874 0 137.382 61.508 137.382 137.382 0 0 0 0 0 0v30.327c-105.539 37.454-396.681 173.927-396.681 173.927z"  horiz-adv-x="1024" />

    
    <glyph glyph-name="weibo" unicode="&#59187;" d="M475.106 481.146c34.52 1.85 69.38-0.3 103.11-8.070 36.61-8.28 72.29-22.74 102.45-45.35 16.88-12.71 31.68-28.28 42.68-46.36 9.95-17.2 16.3-36.72 16.97-56.65 1.21-28.66-9.22-56.88-25.76-79.98-17.15-24.070-40.26-43.39-65.45-58.58-58.51-34.95-127.76-49.29-195.46-47.44-43.41 1.57-86.92 10.33-126.54 28.45-32 14.95-62.17 36.26-81.82 66.11-17.3 25.24-24.66 57.31-18.92 87.47 5.37 30.11 22.46 57 43.89 78.33 19.43 19.37 42.58 34.73 67.070 46.93 42.86 21.090 90.23 32.11 137.78 35.14M463.956 412.406c-15.78-0.93-31.32-4.59-46.12-10.080-32.38-12.35-61.070-35.84-76.97-66.93-9.11-17.67-13.72-37.8-12.35-57.69 1.42-23.32 11.28-45.92 26.96-63.18 12.59-14.070 28.75-24.75 46.23-31.77 39.93-15.92 86.32-12.72 124.65 6.2 30.71 15.040 56.84 40.92 68.97 73.22 8.66 22.51 9.68 48.030 1.97 70.96-5.54 17.23-15.94 32.71-29.12 45.040-27.75 25.67-66.88 37.14-104.22 34.23zM493.066 326.076c8.65 3.31 20.040-0.57 23.040-9.79 3.14-9.15-3.68-19.16-12.62-21.57-8.12-2.73-18.39 0.68-21.74 8.94-3.87 8.97 2.42 19.58 11.32 22.42zM419.096 309.096c11.3 1.52 23.31-1.53 32.070-8.94 7.52-5.99 12.38-15.010 13.68-24.5 1.94-13.75-3.76-27.95-13.81-37.34-7.19-6.59-16.4-11.070-26.13-12.16-10.72-1.35-22.040 1.48-30.57 8.18-7.56 5.76-12.78 14.48-14.3 23.85-2.45 13.14 2.34 27.040 11.45 36.64 7.17 7.79 17.18 12.77 27.61 14.27zM486.146 704.096c19.38 1.62 40.13-1.91 55.71-14.24 11.19-8.71 19.77-21.080 23.010-34.96 2.73-9.16 1.87-18.88 1.5-28.3-1.28-9.97-3.68-19.77-6.24-29.48-1.34-7.13-4.53-14.060-3.7-21.47 0.25-2.65 2.44-5.16 5.22-5.19 5.92-0.42 11.29 2.52 16.64 4.58 12.99 5.92 25.87 12.090 38.84 18.050 14.38 5.76 28.85 11.52 43.97 15.11 18.16 4.29 37.010 6.99 55.65 4.52 15.29-2.030 30.59-8.27 41.020-19.96 11.82-13 17.23-30.8 17.91-48.1 1.050-18.47-1.93-37.16-8.62-54.41-2.89-7.010-6.76-14.75-4.31-22.48 1.54-5.24 6.65-8.33 11.78-9.23 22.080-3.75 43.74-11.72 61.82-25.15 13.37-10.040 24.66-23.13 31.5-38.46 9.25-19.92 11.53-42.7 7.94-64.26-4.51-28.94-17.74-55.84-34.58-79.54-27.67-39.16-65.47-70.22-106.57-94.43-59.090-34.39-125.39-55.55-192.97-65.020-67.66-9.14-137.59-6.8-203.3 12.76-39.28 11.69-76.71 30.38-108.29 56.65-29.36 24.15-52.88 56.060-64.49 92.47-12.55 38.86-11.66 81.070-2.27 120.52 11.23 47.36 33.14 91.63 60.070 131.96 32.28 48.2 72.060 91.31 117.17 127.76 20.54 16.26 42.21 31.18 65.3 43.59 24.96 13.31 51.93 24.010 80.29 26.71M475.106 481.146c-47.55-3.030-94.92-14.050-137.78-35.14-24.49-12.2-47.64-27.56-67.070-46.93-21.43-21.33-38.52-48.22-43.89-78.33-5.74-30.16 1.62-62.23 18.92-87.47 19.65-29.85 49.82-51.16 81.82-66.11 39.62-18.12 83.13-26.88 126.54-28.45 67.7-1.85 136.95 12.49 195.46 47.44 25.19 15.19 48.3 34.51 65.45 58.58 16.54 23.1 26.97 51.32 25.76 79.98-0.67 19.93-7.020 39.45-16.97 56.65-11 18.080-25.8 33.65-42.68 46.36-30.16 22.61-65.84 37.070-102.45 45.35-33.73 7.77-68.59 9.92-103.11 8.070zM463.956 412.406c37.34 2.91 76.47-8.56 104.22-34.23 13.18-12.33 23.58-27.81 29.12-45.040 7.71-22.93 6.69-48.45-1.97-70.96-12.13-32.3-38.26-58.18-68.97-73.22-38.33-18.92-84.72-22.12-124.65-6.2-17.48 7.020-33.64 17.7-46.23 31.77-15.68 17.26-25.54 39.86-26.96 63.18-1.37 19.89 3.24 40.020 12.35 57.69 15.9 31.090 44.59 54.58 76.97 66.93 14.8 5.49 30.34 9.15 46.12 10.080M493.066 326.076c-8.9-2.84-15.19-13.45-11.32-22.42 3.35-8.26 13.62-11.67 21.74-8.94 8.94 2.41 15.76 12.42 12.62 21.57-3 9.22-14.39 13.1-23.040 9.79M419.096 309.096c-10.43-1.5-20.44-6.48-27.61-14.27-9.11-9.6-13.9-23.5-11.45-36.64 1.52-9.37 6.74-18.090 14.3-23.85 8.53-6.7 19.85-9.53 30.57-8.18 9.73 1.090 18.94 5.57 26.13 12.16 10.050 9.39 15.75 23.59 13.81 37.34-1.3 9.49-6.16 18.51-13.68 24.5-8.76 7.41-20.77 10.46-32.070 8.94z"  horiz-adv-x="1024" />

    
    <glyph glyph-name="weibo1" unicode="&#59148;" d="M596.992 375.808c-43.008 23.552-95.744 33.792-158.72 31.232-62.464-3.072-115.2-18.944-158.72-48.64-43.008-29.696-64.512-64.512-64.512-105.472 0-41.472 21.504-75.776 65.024-102.4 43.52-27.136 96.256-38.912 158.208-36.352 60.928 3.072 113.152 20.992 157.184 53.76 44.032 33.28 66.048 70.144 66.048 111.616 0 40.448-21.504 72.704-64.512 96.256zM537.6 235.008c-2.56-14.336-7.68-26.624-15.872-36.352-19.968-25.6-46.592-42.496-79.36-49.664-32.768-7.168-68.096-1.536-105.984 16.896-6.144 3.584-11.776 7.68-16.384 12.8-4.608 5.12-7.68 9.728-9.728 14.336-2.048 4.096-3.584 9.216-4.608 14.336-1.024 5.12-1.536 8.704-1.536 10.24v3.584l-1.024 6.656c0 4.096 0.512 9.728 1.024 16.896s2.048 14.848 4.096 23.552c2.048 8.704 5.632 17.408 10.752 26.112 5.12 8.704 11.264 17.408 18.944 25.088 7.68 7.68 17.92 14.848 31.232 20.48 13.312 6.144 28.16 9.728 44.544 11.776 23.552 3.072 44.544 1.024 62.464-5.632s31.744-15.872 40.96-28.16c9.216-12.288 15.872-25.6 19.456-39.936 3.072-13.824 3.584-28.672 1.024-43.008zM452.608 281.6c-4.096 0.512-8.704-1.024-13.312-4.096l-2.56-3.584c-1.024-0.512-2.048-1.536-2.56-2.56l-1.536-3.584c-0.512-1.024-1.024-2.56-1.024-4.096v-3.584c0-1.024 0.512-2.048 1.024-3.584l1.536-3.584c1.536-3.584 4.608-5.12 9.216-5.632 4.096-0.512 8.704 1.024 12.288 4.096 2.048 2.048 4.096 4.608 5.632 7.168 1.536 2.56 2.048 5.12 2.56 8.192s-0.512 5.632-2.048 7.68c-2.048 4.096-5.12 6.656-9.216 7.168zM974.848 845.312C944.64 875.52 908.288 890.88 865.792 890.88H158.208C115.712 890.88 79.36 875.52 49.152 845.312S3.584 778.752 3.584 736.256v-707.584c0-42.496 15.36-78.848 45.568-109.056s66.56-45.568 109.056-45.568h707.584c42.496 0 78.848 15.36 109.056 45.568s45.568 66.56 45.568 109.056V736.256c0 42.496-14.848 78.848-45.568 109.056z m-203.264-620.544c-15.872-34.304-44.032-64-82.944-88.576-39.424-24.576-81.92-41.984-127.488-52.224-45.568-10.24-89.6-13.312-132.096-9.728-25.6 1.536-50.176 4.608-73.728 9.216-23.04 4.096-47.616 11.264-72.704 20.48-25.088 9.728-47.104 20.992-66.048 34.304-18.432 13.312-34.816 31.232-48.128 52.736-13.312 22.016-22.016 46.592-25.6 74.24v17.92c-0.512 12.8 3.584 31.232 12.8 55.808 9.216 24.576 23.04 49.152 41.984 74.24l9.728 13.824c6.656 8.704 16.896 19.968 29.184 33.792 12.8 13.824 26.624 28.16 41.984 42.496 15.36 14.848 33.28 28.672 53.76 41.984 20.48 13.312 40.96 23.552 60.928 30.72 16.896 5.632 31.744 9.216 44.544 10.24 13.312 1.024 24.064 0.512 32.256-2.56 8.192-3.072 15.36-6.656 20.48-11.264 5.632-4.608 9.728-10.752 12.288-17.92 3.072-7.68 4.608-14.336 5.632-20.48 1.024-6.144 1.536-12.288 1.536-19.456-0.512-3.072-1.536-6.656-2.56-11.776-1.024-5.12-2.048-8.704-2.048-10.752-0.512-2.048-0.512-5.12-1.024-8.192-0.512-3.072 0-5.12 1.536-6.144 1.024-1.024 2.56-1.536 4.608-2.56s5.12-1.024 8.704-0.512 8.704 1.536 14.336 3.584l11.264 5.12c7.68 3.072 16.896 5.632 28.672 9.216 11.264 3.072 23.552 5.632 36.352 7.68 12.8 2.048 25.6 2.048 38.912-0.512 12.8-2.048 23.552-7.68 31.232-15.36 4.608-4.608 8.192-9.728 10.752-15.36s4.096-11.264 5.12-15.872c1.024-5.12 1.024-10.24 0.512-15.36-0.512-5.632-1.024-10.24-2.048-13.824-1.024-3.584-2.048-7.68-4.096-11.264-1.536-3.584-3.072-6.144-3.584-7.168-0.512-1.024-1.024-2.048-1.536-2.56l-2.56-4.096c-1.536-3.072-1.024-6.144 1.536-9.728s8.192-6.144 16.896-7.68c6.656-1.024 14.848-3.584 23.552-7.68s18.432-10.24 28.672-18.944 18.432-18.432 24.576-29.696c6.144-11.264 9.216-25.6 9.216-43.52-0.512-17.92-5.632-36.864-15.36-56.832zM742.4 479.744c-3.584 38.912-27.648 53.248-72.192 43.008-5.632 0-10.752 2.048-14.848 6.144-4.096 4.096-6.144 8.704-6.144 14.848 0 3.584 1.024 6.656 3.072 9.728 2.048 3.072 4.608 5.632 7.168 7.68 3.072 2.048 6.144 3.072 10.24 3.072 13.312 2.048 27.648 2.048 43.008-1.024 52.736-9.216 75.776-46.592 69.12-112.128 0-1.024-0.512-2.048-1.024-2.56-0.512-3.072-1.536-5.632-3.584-8.192-1.536-2.56-4.096-4.608-6.656-6.656-3.072-1.536-6.144-2.56-9.728-2.56-5.632 0-10.752 2.048-14.848 6.144-4.096 4.096-6.144 8.704-6.144 14.848 3.072 8.704 3.584 17.92 2.56 27.648z m153.6 7.168c-1.024-20.48-4.608-41.984-11.776-64-3.072-19.456-12.288-29.184-28.672-29.184-5.632 0-10.752 0.512-14.848 2.048s-7.68 4.096-10.752 7.168c-3.072 3.584-4.096 7.68-4.096 12.8 0 2.56 0.512 5.12 1.024 8.192 0.512 3.072 1.024 5.632 1.536 7.68 0.512 2.048 1.024 4.096 1.536 6.656 0.512 2.048 1.024 3.584 1.536 4.096 0.512 0.512 0.512 1.024 0.512 1.536 9.216 31.744 6.144 64.512-8.704 98.304-7.68 12.288-16.384 22.528-26.112 31.744-10.24 9.216-19.968 16.384-30.208 21.504-10.24 5.12-19.968 9.728-30.208 12.8-10.24 3.584-19.456 5.632-27.648 6.656-8.192 1.024-15.36 1.536-20.992 1.536-5.632 0-9.728-0.512-11.776-1.536-2.048-1.024-4.096-1.536-6.656-2.56s-5.12-1.536-7.168-1.536c-2.048-0.512-4.608-0.512-6.656-1.536-2.048-0.512-3.072-1.024-4.096-1.024h-2.56c-8.192 0-14.848 3.072-20.48 8.704s-8.704 12.8-8.704 21.504c0 6.144 2.048 12.288 6.144 17.92 4.096 5.632 9.216 9.216 15.36 10.752l1.024 1.024 1.024 1.536c0.512 0.512 1.024 1.024 1.536 1.024 42.496 8.192 76.288 9.216 101.888 3.584 12.288-3.072 23.552-6.656 34.816-11.264 11.264-4.608 23.04-10.752 34.816-18.432 12.288-7.68 23.04-16.384 32.768-26.112 9.728-9.728 18.432-20.992 26.112-34.304 7.68-13.312 13.312-28.16 16.896-43.52 3.072-15.36 4.608-33.28 3.584-53.76zM416.256 249.344c-2.56 2.56-5.632 5.12-9.216 6.656-3.584 2.048-7.68 3.584-12.288 4.096-5.12 1.024-9.728 1.024-14.848 0.512-7.68-0.512-14.336-3.072-20.48-7.168-6.144-4.096-10.752-9.728-14.336-15.36-3.584-6.144-5.12-12.288-5.12-18.432 0-3.072 0.512-5.632 1.536-8.192 1.024-2.56 2.048-5.12 3.584-6.656s3.072-4.096 4.608-6.144c1.536-2.048 4.096-3.584 6.656-4.608l7.68-3.072c2.56-1.024 5.632-1.536 8.704-1.536 3.072-0.512 6.656 0 9.728 0.512 7.68 0.512 14.336 3.072 20.48 6.656 6.144 4.096 11.264 8.704 14.848 14.848 3.584 5.632 5.632 11.776 5.632 17.92 0 4.096-0.512 7.68-1.536 11.264-1.024 3.072-3.072 6.144-5.632 8.704z"  horiz-adv-x="1024" />

    
    <glyph glyph-name="laba" unicode="&#58892;" d="M527.544 781.145c-10.874 5.363-23.81 3.89-33.329-3.8-0.412-0.369-46.62-37.854-97.6-76.177-88.672-66.688-114.517-77.814-119.762-79.596H151.198c-0.618 0-1.237-0.088-1.856-0.088H92.614c-14.293 0-25.874-11.847-25.874-26.449V172.88c0-14.616 11.58-26.433 25.874-26.433h204.808c5.128-1.916 29.528-13.438 108.21-78.947 45.795-38.103 86.875-75.323 87.286-75.706 5.894-5.333 13.379-8.132 20.922-8.132a31.08 31.08 0 0 1 12.907 2.83c11.318 5.215 18.596 16.678 18.596 29.351V752.177c0.03 12.363-6.894 23.606-17.8 28.968z m-33.623-714c-13.97 12.024-29.529 25.224-45.441 38.397-105.087 86.904-131.078 94.153-148.7 94.153-0.353 0-0.677-0.059-1.002-0.059-0.354 0-0.707 0.06-1.031 0.06H140.53c-18.152 0-22.338 5.246-22.338 23.869V547.517c0 12.627 1.474 20.54 16.355 20.54h143.13c17.151 0 43.496 7.19 158.425 93.15 20.48 15.325 40.49 30.707 57.818 44.234v-638.295z m309.57 317.041c0 81.997-43.556 153.518-108.298 192.004-2.919 1.576-9.872 4.64-14.705 4.64-14.351 0-25.992-11.904-25.992-26.58 0-9.843 5.129-18.625 12.908-23.207 50.038-29.041 83.809-83.898 83.809-146.858 0-64.081-34.92-119.776-86.463-148.42-7.483-4.686-12.435-13.143-12.435-22.78 0-14.675 11.669-26.581 26.022-26.581 6.1-0.06 13.35 3.624 13.35 3.624 66.687 37.959 111.803 110.657 111.803 194.158z m-30.029 327.118c-4.833 2.948-9.636 5.35-15.5 5.35-14.292 0-25.903-11.832-25.903-26.45 0-10.52 6.13-18.976 14.793-23.795 95.067-56.639 159.015-161.784 159.015-282.296 0-120.41-63.858-225.497-158.838-282.166-8.309-4.596-15.5-13.348-15.5-24.163 0-14.617 11.612-26.434 25.875-26.434 5.775 0 10.342 2.239 15.324 5.186 110.33 65.716 184.532 187.776 184.532 327.577-0.002 139.579-73.91 261.358-183.798 327.191z"  horiz-adv-x="1024" />

    
    <glyph glyph-name="xiaomi" unicode="&#58953;" d="M578.9 827.7s0.1 0 0 0c0.2 0.3 0.2 0.2 0 0zM709.9 93V501.2c0 92.8-75.2 168-167.9 168H70c-3.6 0-6.6-2.9-6.6-6.5V93c0-3.6 2.9-6.5 6.6-6.5h126c3.6 0 6.6 2.9 6.6 6.6V540.2c0 3.6 2.9 6.6 6.6 6.6h271.1c50.9 0 92.2-41.3 92.2-92.2v-361.5c0-3.6 2.9-6.6 6.6-6.6h124.2c3.6 0 6.6 2.9 6.6 6.5m-254.6 0c0-3.6-2.9-6.6-6.6-6.6H322.6c-3.6 0-6.6 2.9-6.6 6.6V435.7c0 3.6 2.9 6.6 6.6 6.6h126.1c3.6 0 6.6-2.9 6.6-6.6V93z m504 0c0-3.6-3-6.6-6.6-6.6h-126c-3.6 0-6.6 2.9-6.6 6.6V662.6c0 3.6 3 6.6 6.6 6.6h126c3.6 0 6.6-2.9 6.6-6.6V93z"  horiz-adv-x="1024" />

    
    <glyph glyph-name="jiahao1" unicode="&#58882;" d="M902.947 324.97299999999996h-332.293v-332.346c0-32.387-26.267-58.628-58.655-58.628-32.387 0-58.654 26.241-58.654 58.628v332.346h-332.295c-32.414 0-58.654 26.241-58.654 58.628 0 32.375 26.243 58.628 58.654 58.628h332.293v332.346c0 32.375 26.267 58.628 58.654 58.628 32.388 0 58.655-26.254 58.655-58.628v-332.347h332.293c32.414 0 58.655-26.252 58.655-58.626-0.001-32.387-26.241-58.626-58.655-58.626z"  horiz-adv-x="1024" />

    
    <glyph glyph-name="gouwuche" unicode="&#58881;" d="M357.44 129.60000000000002q18.24 0 34.56-6.72t28.8-18.72 19.2-28.32 6.72-34.56-6.72-34.56-19.2-28.32-28.8-19.2-34.56-7.2q-19.2 0-35.04 7.2t-28.32 19.2-19.2 28.32-6.72 34.56 6.72 34.56 19.2 28.32 28.32 18.72 35.04 6.72zM756.8 127.67999999999995q18.24 0 35.04-6.72t28.8-18.72 19.2-28.32 7.2-34.56-7.2-34.56-19.2-28.32-28.8-19.2-35.04-7.2-34.56 7.2-28.32 19.2-19.2 28.32-7.2 34.56 7.2 34.56 19.2 28.32 28.32 18.72 34.56 6.72zM918.08 672.96q26.88 0 41.76-7.2t21.12-17.76 5.76-22.56-3.36-20.64-12-35.52-20.64-59.04-22.56-63.84-16.8-49.92q-12.48-38.4-31.68-53.28t-47.04-14.88l-32.64 0-62.4 0-81.6 0-89.28 0-238.08 0 14.4-86.4 483.84 0q46.08 0 46.08-39.36 0-19.2-9.12-33.12t-36-13.92l-46.08 0-89.28 0-110.4 0-112.32 0-92.16 0-52.8 0q-19.2 0-32.16 8.64t-21.6 22.56-13.92 30.24-8.16 30.72q-0.96 5.76-5.28 27.84t-10.56 55.2-13.92 73.92-15.36 82.08q-18.24 96.96-41.28 216l-72 0q-14.4 0-24 7.2t-15.84 17.28-8.64 21.6-2.4 21.12q0 19.2 12.96 31.68t35.04 12.48l21.12 0 19.2 0 24 0 32.64 0q19.2 0 30.72-5.76t18.24-14.4 9.6-18.24 4.8-16.32q1.92-7.68 3.84-21.6t3.84-28.32q2.88-17.28 5.76-36.48l656.64 0z"  horiz-adv-x="1024" />

    
    <glyph glyph-name="QQ" unicode="&#58914;" d="M1024 33.2c0-89-72.2-161.2-161.2-161.2H161.2C72.2-128 0-55.8 0 33.2V734.8C0 823.8 72.2 896 161.2 896h701.6c89 0 161.2-72.2 161.2-161.2v-701.6zM780 38.6c-4.7-37.4-65.8-60.4-136.3-51.5-70.5 9-123.8 46.6-119 84 4.8 37.4 65.8 60.4 136.2 51.4 70.6-8.9 123.9-46.6 119.1-83.9zM248.1 42.2c5.6-37.5 68.9-61.5 141.6-53.7 72.7 7.9 127.1 44.7 121.6 82.2s-69 61.5-141.7 53.6c-72.7-7.9-127.1-44.6-121.5-82.1zM773.7 529.7c0-139.8-114.2-253.1-255.1-253.1-140.8 0-255 113.3-255 253.1s114.2 253.1 255 253.1c140.9 0 255.1-113.3 255.1-253.1zM245.8 49.6c5.6-37.5 68.9-61.5 141.6-53.7 72.7 7.9 127.1 44.7 121.6 82.2s-69 61.5-141.7 53.6c-72.6-7.8-127.1-44.6-121.5-82.1zM782.9 47.6c-4.7-37.4-65.8-60.4-136.3-51.5-70.5 9-123.8 46.6-119 84 4.8 37.4 65.8 60.4 136.3 51.4 70.5-8.9 123.7-46.5 119-83.9zM760.9 249.4c0-113.2-110.2-205-246.1-205s-246.1 91.8-246.1 205 110.2 205 246.1 205 246.1-91.7 246.1-205zM309.1 290.2c-36.1-72.1-92.8-117.8-109.6-108.8-22.3 11.9-27.7 84.7 8.5 156.8 36.2 72.1 94.5 118.3 122.4 104.3 27.9-14.1 14.8-80.2-21.3-152.3zM724.5 281.1c33.1-65.5 80.7-116.4 101-111.9 16.4 3.6 28.2 80.2-1.9 153.6-30.6 74.6-86 128.2-114 114.2-27.9-14-21.4-83.9 14.9-155.9zM334.4 378.2c-15.2-31.2-23.9-66.6-23.9-104.2 0-124.3 93.6-225 209.1-225s209.1 100.7 209.1 225c0 36.6-8.3 71.1-22.7 101.7-106.5-54.3-301.3-14.6-371.6 2.5zM401.2 588.1a61.1 49.9 90 1 1 99.8 0 61.1 49.9 90 1 1-99.8 0ZM644.4 587.7c0-33.8-22.3-61.1-49.9-61.1-27.6 0-49.9 27.4-49.9 61.1s22.4 61.1 49.9 61.1c27.6 0.1 49.9-27.3 49.9-61.1zM527.3 509.9c-69.5 0-130.2-16.2-163.9-40.5 8.4-19.9 33.9-35.4 58.9-49.8 30.2-17.4 79.8-29.1 104.8-29.1 23 0 80.1 15.5 110.9 35.6 21.7 14.1 44.5 26.6 52.8 43.5-33.7 24.2-94.2 40.3-163.5 40.3zM493.4 587.7c0-21.4-14-38.7-31.2-38.7S431 566.3 431 587.7c0 21.4 14 38.7 31.2 38.7s31.2-17.3 31.2-38.7zM481.7 596.5c0-8.6-5.9-15.6-13.1-15.6-7.2 0-13.1 7-13.1 15.6s5.9 15.6 13.1 15.6c7.2 0 13.1-6.9 13.1-15.6zM570.1 577.7c-2.9 0-5.5 2.1-6 5.1-0.3 1.9-0.5 3.8-0.5 5.8 0 16.3 11.6 29.6 25.8 29.6s25.8-13.3 25.8-29.6c0-1.4-0.1-2.8-0.2-4.2-0.4-3.4-3.5-5.7-6.9-5.3-3.4 0.4-5.8 3.5-5.3 6.9 0.1 0.9 0.2 1.8 0.2 2.7 0 9.6-6.1 17.4-13.5 17.4-7.5 0-13.5-7.8-13.5-17.4 0-1.2 0.1-2.5 0.3-3.7 0.6-3.3-1.6-6.5-5-7.1-0.5-0.2-0.9-0.2-1.2-0.2zM388 479.5s38.4-32.9 73.7-42.7c41.3-11.5 100.9-6.1 123.6 1.5 41.1 13.8 84.8 43.5 84.8 43.5s-38.6-29.5-78.4-55.6c-20-13.1-41.9-31.7-88-21.7-11.7 2.5-32.6 16.7-39.3 20.6-34.2 19.8-68.4 46.5-76.4 54.4zM430.4 304.4v-111.3s-46-21.8-87.2 17.5c-15.8 15.1 8.5 122.2 8.5 122.2l78.7-28.4zM345.4 325.9l84.3-67.5s1.4 42.2-0.4 54.2c-1.8 12-83.9 19.3-83.9 19.3M527.3 285.4c-106.1 0-206.2 37.7-285.2 106.9-1.9 1.7-1.3 7-1.3 7s3 11.8 8.1 39.9c3.5 19.7 11.5 43.8 15.8 43.8 2.7-2.2 6-5.2 9.2-8.2 5.8-5.4 11.4-11 13.3-12.7 65.4-61.2 150.2-94.8 240.3-94.8 89.7 0 174.7 33.5 240.1 94.6 0.5 0.5 14.7-17.9 21.1-36.6 6.8-20 13.7-41.8 7.4-46.8-76.4-60.3-170.3-93.1-268.8-93.1z"  horiz-adv-x="1024" />

    
    <glyph glyph-name="tongxunlu" unicode="&#58884;" d="M737.9 207.3l-161.1 63.9s-30.6 11.1-41.7 25c-8.3 8.3-8.3 25 0 47.2 5.6 22.2 88.9 116.7 88.9 200 0 130.5-86.1 236.1-191.7 236.1S240.7 673.9 240.7 543.4c0-80.5 75-177.8 83.3-194.4 8.3-16.7 5.6-44.4 0-52.8-11.1-11.1-50-25-50-25l-147.2-63.9c-33.3-13.9-61.1-44.4-61.1-80.5v-61.2c0-38.9 33.3-63.9 72.2-63.9h588.8c38.9 0 72.2 25 72.2 63.9v61.2c0.1 36.1-27.7 69.4-61 80.5zM710.1 507.4c-16.7 0-30.6 8.3-30.6 27.8s13.9 27.8 30.6 27.8h216.7c16.7 0 30.6-8.3 30.6-27.8s-13.9-27.8-30.6-27.8H710.1zM754.6 385.2c-16.7 0-30.6 8.3-30.6 27.8s13.9 27.8 30.6 27.8h175c16.7 0 27.8-8.3 27.8-27.8 0-19.4-13.9-27.8-30.6-27.8H754.6zM812.9 271.3c-16.7 0-30.6 8.3-30.6 27.8s13.9 27.8 30.6 27.8h113.9c16.7 0 30.6-8.3 30.6-27.8s-13.9-27.8-30.6-27.8H812.9z"  horiz-adv-x="1024" />

    
    <glyph glyph-name="icon-test" unicode="&#58929;" d="M584.167619 757.930667H422.521905V640H292.571429V896h438.857142v-146.70019L481.694476-128H325.778286z"  horiz-adv-x="1024" />

    


  </font>
</defs>
</svg>
